<?xml version="1.0" encoding="UTF-8" standalone="no"?>
<!-- Created with Inkscape (http://www.inkscape.org/) -->

<svg
   version="1.1"
   id="svg2"
   xml:space="preserve"
   width="358.67734"
   height="214.67732"
   viewBox="0 0 358.67734 214.67732"
   sodipodi:docname="c2885ddcfd6b4114af49a86b63eb8533-2.pdf"
   xmlns:inkscape="http://www.inkscape.org/namespaces/inkscape"
   xmlns:sodipodi="http://sodipodi.sourceforge.net/DTD/sodipodi-0.dtd"
   xmlns="http://www.w3.org/2000/svg"
   xmlns:svg="http://www.w3.org/2000/svg"><defs
     id="defs6" /><sodipodi:namedview
     id="namedview4"
     pagecolor="#ffffff"
     bordercolor="#666666"
     borderopacity="1.0"
     inkscape:pageshadow="2"
     inkscape:pageopacity="0.0"
     inkscape:pagecheckerboard="0" /><g
     id="g8"
     inkscape:groupmode="layer"
     inkscape:label="c2885ddcfd6b4114af49a86b63eb8533-2"
     transform="matrix(1.3333333,0,0,-1.3333333,0,214.67733)"><path
       d="M 0,0 H 269.008 V 161.008 H 0 Z"
       style="fill:#ffffff;fill-opacity:1;fill-rule:nonzero;stroke:none"
       id="path10" /><path
       d="m 166.828,0 h 102.18 v 161.008 h -102.18 z"
       style="fill:#f5f5f7;fill-opacity:1;fill-rule:nonzero;stroke:none"
       id="path12" /><text
       transform="matrix(1,0,0,-1,42.5811,113.0952)"
       style="font-variant:normal;font-weight:normal;font-stretch:normal;font-size:8.6377px;font-family:Montserrat;-inkscape-font-specification:Montserrat-Regular;writing-mode:lr-tb;fill:#242729;fill-opacity:1;fill-rule:nonzero;stroke:none"
       id="text16"><tspan
         x="0 8.6636133 17.793661 26.406313 34.067951 40.762169 49.374821 57.036461 61.934036 70.597649 75.477951 84.012001 93.297523 100.95917"
         y="0"
         sodipodi:role="line"
         id="tspan14">ANASTASIA ROSE</tspan></text><text
       transform="matrix(1,0,0,-1,90.6064,97.1836)"
       style="font-variant:normal;font-weight:300;font-stretch:normal;font-size:4.3188px;font-family:'Montserrat Light';-inkscape-font-specification:Montserrat-Light;writing-mode:lr-tb;fill:#1d1d1b;fill-opacity:1;fill-rule:nonzero;stroke:none"
       id="text26"><tspan
         x="0 4.1158166 8.1020689 12.066728 15.819764 20.112652 22.237501 26.124422 28.283821 32.555115 36.230412 39.73296 41.857811 45.973625 50.270832 53.946133"
         y="0"
         sodipodi:role="line"
         id="tspan18">GRAPHIC DESIGNER</tspan><tspan
         x="-47.506802 -43.831501 -38.990128 -35.025467 -32.90062 -29.804039 -24.681942 -22.557093 -18.259886 -14.964642 -10.692917 -8.9697161 -5.1557837 -0.78083903"
         y="24.349394"
         sodipodi:role="line"
         id="tspan20">EMAIL@INFO.COM</tspan><tspan
         x="-47.506802 -42.25082 -38.575523 -34.619499 -31.116955 -28.992104 -25.718454 -22.043156 -20.319954 -16.506454 -12.131509"
         y="65.896248"
         sodipodi:role="line"
         id="tspan22">WEBSITE.COM</tspan><tspan
         x="-47.506802 -44.522511 -42.354473 -38.826012 -35.297554 -33.060413 -30.901014 -27.372555 -23.844095 -20.315636 -18.156235 -14.627775 -11.099316 -7.5708566 -4.042397 -1.8829968 1.6454628 5.1739225 8.7023821"
         y="45.122822"
         sodipodi:role="line"
         id="tspan24">+(01) 523 3462 3461</tspan></text><g
       id="g28"
       transform="translate(17.2754,111.3716)"><path
         d="M 0,0 V 32.361 H 234.457"
         style="fill:none;stroke:#a9b0b3;stroke-width:0.25;stroke-linecap:butt;stroke-linejoin:miter;stroke-miterlimit:10;stroke-dasharray:none;stroke-opacity:1"
         id="path30" /></g><text
       transform="matrix(1,0,0,-1,201.9092,31.3213)"
       style="font-style:italic;font-variant:normal;font-weight:normal;font-stretch:normal;font-size:5.346px;font-family:'PT Serif';-inkscape-font-specification:PTSerif-Italic;writing-mode:lr-tb;fill:#242729;fill-opacity:1;fill-rule:nonzero;stroke:none"
       id="text34"><tspan
         x="0 4.608252 7.4950919 10.381932 12.835746 14.161554 15.669126 18.646849 19.972656 22.875534 25.623379 28.601101 31.48794 34.235783 37.213505 38.539314 41.367348 44.195381 47.023415"
         y="0"
         sodipodi:role="line"
         id="tspan32">Made in London 2020</tspan></text><g
       id="g36"
       transform="translate(79.5078,97.835)"><path
         d="M 0,0 H -36.408"
         style="fill:none;stroke:#a9b0b3;stroke-width:0.25;stroke-linecap:butt;stroke-linejoin:miter;stroke-miterlimit:10;stroke-dasharray:none;stroke-opacity:1"
         id="path38" /></g></g></svg>
