<?xml version="1.0" encoding="UTF-8" standalone="no"?>
<!-- Created with Inkscape (http://www.inkscape.org/) -->

<svg
   version="1.1"
   id="svg2"
   xml:space="preserve"
   width="362.83466"
   height="211.28532"
   viewBox="0 0 362.83466 211.28533"
   sodipodi:docname="49fe01480c9c03a270e079a861c6f42b-2.pdf"
   xmlns:inkscape="http://www.inkscape.org/namespaces/inkscape"
   xmlns:sodipodi="http://sodipodi.sourceforge.net/DTD/sodipodi-0.dtd"
   xmlns="http://www.w3.org/2000/svg"
   xmlns:svg="http://www.w3.org/2000/svg"><defs
     id="defs6"><linearGradient
       x1="0"
       y1="0"
       x2="1"
       y2="0"
       gradientUnits="userSpaceOnUse"
       gradientTransform="matrix(0,-158.74016,-158.74016,0,136.06299,158.74016)"
       spreadMethod="pad"
       id="linearGradient30"><stop
         style="stop-opacity:1;stop-color:#f2dbec"
         offset="0"
         id="stop24" /><stop
         style="stop-opacity:1;stop-color:#d9d3ea"
         offset="0.4963"
         id="stop26" /><stop
         style="stop-opacity:1;stop-color:#9dc6eb"
         offset="1"
         id="stop28" /></linearGradient><clipPath
       clipPathUnits="userSpaceOnUse"
       id="clipPath40"><path
         d="m 203.386,158.464 v -8.504 h 3.203 c 9.712,-1.54 17.147,-9.928 17.147,-20.074 v 0 -101.032 c 0,-11.239 -9.112,-20.351 -20.35,-20.351 v 0 V 0 h 68.74 v 158.464 z"
         id="path38" /></clipPath><clipPath
       clipPathUnits="userSpaceOnUse"
       id="clipPath48"><path
         d="M 0,158.74 H 272.126 V 0 H 0 Z"
         id="path46" /></clipPath><linearGradient
       x1="0"
       y1="0"
       x2="1"
       y2="0"
       gradientUnits="userSpaceOnUse"
       gradientTransform="matrix(0,-158.74016,-158.74016,0,136.06299,158.74016)"
       spreadMethod="pad"
       id="linearGradient60"><stop
         style="stop-opacity:1;stop-color:#f2dbec"
         offset="0"
         id="stop54" /><stop
         style="stop-opacity:1;stop-color:#d9d3ea"
         offset="0.4963"
         id="stop56" /><stop
         style="stop-opacity:1;stop-color:#9dc6eb"
         offset="1"
         id="stop58" /></linearGradient><clipPath
       clipPathUnits="userSpaceOnUse"
       id="clipPath96"><path
         d="M 0,158.74 H 272.126 V 0 H 0 Z"
         id="path94" /></clipPath></defs><sodipodi:namedview
     id="namedview4"
     pagecolor="#ffffff"
     bordercolor="#666666"
     borderopacity="1.0"
     inkscape:pageshadow="2"
     inkscape:pageopacity="0.0"
     inkscape:pagecheckerboard="0" /><g
     id="g8"
     inkscape:groupmode="layer"
     inkscape:label="49fe01480c9c03a270e079a861c6f42b-2"
     transform="matrix(1.3333333,0,0,-1.3333333,0,211.28533)"><path
       d="M 0,0 H 272.126 V 158.464 H 0 Z"
       style="fill:#ffffff;fill-opacity:1;fill-rule:nonzero;stroke:none"
       id="path10" /><g
       id="g12"><g
         id="g14"><g
           id="g20"><g
             id="g22"><path
               d="m 203.386,158.464 v -8.504 h 3.203 c 9.712,-1.54 17.147,-9.928 17.147,-20.074 v 0 -101.032 c 0,-11.239 -9.112,-20.351 -20.35,-20.351 v 0 V 0 h 68.74 v 158.464 z"
               style="fill:url(#linearGradient30);stroke:none"
               id="path32" /></g></g></g></g><g
       id="g34"><g
         id="g36"
         clip-path="url(#clipPath40)"><g
           id="g42"><g
             id="g44" /><g
             id="g74"><g
               clip-path="url(#clipPath48)"
               id="g72"><g
                 id="g70"><g
                   id="g68"><g
                     id="g66"><g
                       id="g64"><path
                         d="M 272.126,0 H 0 v 158.74 h 272.126 z"
                         style="fill:url(#linearGradient60);stroke:none"
                         id="path62" /></g></g></g></g></g></g></g></g></g><text
       transform="matrix(1,0,0,-1,31.1182,119.2842)"
       style="font-variant:normal;font-weight:800;font-stretch:normal;font-size:9.7503px;font-family:'Raleway ExtraBold';-inkscape-font-specification:Raleway-ExtraBold;writing-mode:lr-tb;fill:#8967aa;fill-opacity:1;fill-rule:nonzero;stroke:none"
       id="text80"><tspan
         x="0 9.3505373 17.8333 28.168617 35.959106 40.180984 48.12748 57.361015 65.843773 75.194313 83.677078 94.01239"
         y="0"
         sodipodi:role="line"
         id="tspan76">NAME SURNAME</tspan><tspan
         x="0 8.024497 17.384785 25.33128 30.206429 38.211426 43.086575 52.446865"
         y="13.299409"
         sodipodi:role="line"
         id="tspan78">POSITION</tspan></text><text
       transform="matrix(1,0,0,-1,31.1104,89.7197)"
       style="font-variant:normal;font-weight:bold;font-stretch:normal;font-size:6.7323px;font-family:Raleway;-inkscape-font-specification:Raleway-Bold;writing-mode:lr-tb;fill:#8967aa;fill-opacity:1;fill-rule:nonzero;stroke:none"
       id="text88"><tspan
         x="0 3.4334731 7.6142311 13.094323 18.453907 21.880648 24.842861 29.515076 34.658554 39.761639 43.766682 48.957287 54.03344 59.466408 64.589684 70.002457"
         y="0"
         sodipodi:role="line"
         id="tspan82">(+00) 123-456789</tspan><tspan
         x="0 5.4666276 11.902706 18.298391 24.12183 31.291731 37.162296 40.434193 45.712318 52.74757 58.140144 65.310043 71.180611 74.452507 79.730629 82.457886 88.375572 94.811653"
         y="9.1828575"
         sodipodi:role="line"
         id="tspan84">YOURMAIL@EMAIL.COM</tspan><tspan
         x="0 8.4355717 16.871143 24.788328 27.117704 32.584332 39.020412 45.416096 51.239536 56.712894 59.984795 65.49855 70.891121 73.617699 79.534721 85.970795"
         y="18.365713"
         sodipodi:role="line"
         id="tspan86">WWW.YOURSITE.COM</tspan></text><g
       id="g90"><g
         id="g92"
         clip-path="url(#clipPath96)"><g
           id="g98"
           transform="translate(33.3983,49.3679)"><path
             d="M 0,0 C 2.485,0.302 4.634,1.123 6.354,3.016 6.637,3.327 9.427,8.235 8.717,8.296 8.819,8.287 10.804,4.214 11.29,3.706 13.208,1.702 15.67,0.947 18.377,0.879 V 2.633 C 11.457,1.512 9.91,-9.752 9.957,-15.501 l 0.006,1.497 C 9.512,-8.854 6.295,1.345 0,1.754 0.025,1.753 -0.052,0.004 0,0 c 6.289,-0.409 9.511,-10.604 9.963,-15.758 -0.043,0.488 0.011,1.006 0.006,1.497 -0.039,4.824 2.869,14.242 8.408,15.14 0.06,0.01 -0.018,1.755 0,1.754 C 13.076,2.768 9.389,6.118 8.749,11.382 8.748,11.372 8.747,11.361 8.747,11.351 8.612,6.038 5.229,2.39 0,1.754 -0.083,1.744 0.057,0.007 0,0"
             style="fill:#f2dbec;fill-opacity:1;fill-rule:nonzero;stroke:none"
             id="path100" /></g><g
           id="g102"
           transform="translate(54.1151,38.6843)"><path
             d="M 0,0 C 5.059,-0.47 8.944,2.302 10.146,7.239 V 8.92 c -0.503,-5.432 1.28,-10.376 7.24,-11.827 v 1.68 C 11.34,-0.944 7.154,-10.229 6.13,-15.097 v -1.68 C 6.848,-11.117 6.33,-0.13 0,1.681 0.137,1.642 -0.159,0.046 0,0 c 5.203,-1.488 6.692,-10.665 6.13,-15.097 -0.068,-0.542 0.112,-1.15 0,-1.68 1.026,4.874 5.212,14.152 11.256,13.87 -0.052,0.002 0.09,1.658 0,1.68 -4.422,1.077 -7.112,4.237 -7.358,8.815 -0.001,-0.55 -0.002,-1.1 -0.002,-1.651 0.04,0.434 0.08,0.868 0.12,1.302 0.05,0.532 -0.124,1.168 0,1.681 C 8.945,3.984 5.06,1.211 0,1.681 0.04,1.677 -0.063,0.006 0,0"
             style="fill:#f2dbec;fill-opacity:1;fill-rule:nonzero;stroke:none"
             id="path104" /></g><g
           id="g106"
           transform="translate(32.8533,25.0817)"><path
             d="M 0,0 C 3.794,1.103 4.911,4.397 4.427,7.919 V 6.822 C 5.353,3.64 7.966,1.943 11.25,2.396 V 3.492 C 7.249,2.179 7.109,-5.107 7.736,-8.718 v 1.097 C 6.928,-4.474 3.932,1.455 0,1.097 -0.041,1.093 0.024,0.002 0,0 c 3.934,0.358 6.929,-5.575 7.736,-8.718 -0.087,0.338 0.061,0.748 0,1.097 -0.497,2.86 0.11,8.899 3.514,10.017 0.088,0.028 -0.065,1.087 0,1.096 C 7.966,3.041 5.353,4.735 4.427,7.919 4.522,7.593 4.38,7.165 4.427,6.822 4.466,6.541 4.505,6.26 4.543,5.978 4.542,6.29 4.541,6.602 4.539,6.914 4.512,3.987 2.747,1.896 0,1.097 -0.105,1.065 0.09,0.026 0,0"
             style="fill:#f2dbec;fill-opacity:1;fill-rule:nonzero;stroke:none"
             id="path108" /></g></g></g></g></svg>
