<?xml version="1.0" encoding="UTF-8" standalone="no"?>
<svg
   xmlns:dc="http://purl.org/dc/elements/1.1/"
   xmlns:cc="http://creativecommons.org/ns#"
   xmlns:rdf="http://www.w3.org/1999/02/22-rdf-syntax-ns#"
   xmlns:svg="http://www.w3.org/2000/svg"
   xmlns="http://www.w3.org/2000/svg"
   viewBox="0 0 758.81335 222.98666"
   height="222.98666"
   width="758.81335"
   xml:space="preserve"
   id="svg2"
   version="1.1"><metadata
     id="metadata8"><rdf:RDF><cc:Work
         rdf:about=""><dc:format>image/svg+xml</dc:format><dc:type
           rdf:resource="http://purl.org/dc/dcmitype/StillImage" /></cc:Work></rdf:RDF></metadata><defs
     id="defs6"><clipPath
       id="clipPath22"
       clipPathUnits="userSpaceOnUse"><path
         id="path20"
         d="M 0,0 H 5691 V 1672 H 0 Z" /></clipPath><clipPath
       id="clipPath28"
       clipPathUnits="userSpaceOnUse"><path
         id="path26"
         d="M 5691.07,0 H 3111.55 v 1672.44 h 2579.52 z" /></clipPath><clipPath
       id="clipPath66"
       clipPathUnits="userSpaceOnUse"><path
         id="path64"
         d="M 0,0 H 5691 V 1672 H 0 Z" /></clipPath><clipPath
       id="clipPath72"
       clipPathUnits="userSpaceOnUse"><path
         id="path70"
         d="M 2580.37,0 H 0.847656 V 1672.44 H 2580.37 Z" /></clipPath></defs><g
     transform="matrix(1.3333333,0,0,-1.3333333,0,222.98667)"
     id="g10"><g
       transform="scale(0.1)"
       id="g12"><path
         id="path14"
         style="fill:#f3f0ed;fill-opacity:1;fill-rule:nonzero;stroke:none"
         d="M 5691.07,0 H 3111.55 V 1672.44 H 5691.07 V 0" /><g
         id="g16"><g
           clip-path="url(#clipPath22)"
           id="g18"><g
             clip-path="url(#clipPath28)"
             id="g24"><path
               id="path30"
               style="fill:#b0dabf;fill-opacity:1;fill-rule:nonzero;stroke:none"
               d="m 2956.4,918.5 c -2.29,-180.625 47.57,-393.789 158.06,-535.398 147.09,-188.512 409.19,-291.2231 637.34,-219.68 211.94,66.457 361.06,265.43 426.93,477.547 27.62,88.941 42.86,180.449 51.01,273.082 C 3787.89,896.379 3380.9,902.762 2956.4,918.5" /><path
               id="path32"
               style="fill:#cfe6e7;fill-opacity:1;fill-rule:nonzero;stroke:none"
               d="m 5343.57,865.555 c 115.13,4.82 228.7,-62.438 304.04,-169.598 44.26,0.281 88.06,0.07 131.11,-0.91 -81.08,313.743 -341.99,541.293 -607.9,530.163 -265.92,-11.12 -513.83,-259.964 -577.61,-579.769 146.09,5.168 300.07,15.047 455.8,24.731 69.3,113.625 179.17,190.555 294.56,195.383" /><path
               id="path34"
               style="fill:#dfd9d0;fill-opacity:1;fill-rule:nonzero;stroke:none"
               d="m 3853.11,1672.44 c 33.47,-48.44 68.68,-94.47 108.18,-133.56 63.14,-62.49 139.04,-106.69 217.28,-104.25 71.28,2.23 139.55,42.97 197.57,98.96 41.91,40.43 79.15,88.67 114.95,138.85 h -637.98" /><path
               id="path36"
               style="fill:#222d27;fill-opacity:1;fill-rule:nonzero;stroke:none"
               d="m 3306.95,222.02 c -18.6,-8.36 -33.67,-27.981 -30.29,-48.09 2.12,-12.598 11.2,-23.41 22.5,-29.36 11.3,-5.949 24.57,-7.441 37.28,-6.082 13.54,1.453 27.35,6.461 36.1,16.903 12.19,14.558 23.73,57.199 5.25,70.718 -15.52,11.36 -55.77,2.7 -70.84,-4.089" /><path
               id="path38"
               style="fill:#222d27;fill-opacity:1;fill-rule:nonzero;stroke:none"
               d="m 4982.07,660.891 c -4.45,-37.43 21.79,-74.59 56.87,-88.391 35.08,-13.801 76.2,-6.5 108.2,13.422 18.06,11.25 34.56,27.848 38.01,48.84 15.33,93.351 -190.2,134.41 -203.08,26.129" /></g></g></g><g
         transform="scale(10)"
         id="g40"><text
           id="text44"
           style="font-variant:normal;font-weight:bold;font-size:24px;font-family:Antonio;-inkscape-font-specification:Antonio-Bold;writing-mode:lr-tb;fill:#222d27;fill-opacity:1;fill-rule:nonzero;stroke:none"
           transform="matrix(1,0,0,-1,348.986,109.987)"><tspan
             id="tspan42"
             y="0"
             x="0 11.249004 23.91601 36.747108 49.320309 54.581059 68.068382 79.892044 97.469131">YOUR NAME</tspan></text>
<text
           id="text54"
           style="font-variant:normal;font-weight:bold;font-size:6px;font-family:Signika;-inkscape-font-specification:Signika-Bold;writing-mode:lr-tb;fill:#222d27;fill-opacity:1;fill-rule:nonzero;stroke:none"
           transform="matrix(1,0,0,-1,348.986,99.9265)"><tspan
             id="tspan46"
             y="0"
             x="0 3.9931619 9.1923838 14.079096 16.598635 21.333 26.531244 31.073244 34.163101 38.42091 41.510742 46.708984">JOB POSITION</tspan><tspan
             id="tspan48"
             y="34.9734"
             x="0 4.4404378 8.8798981 13.320336 15.839874 20.279333 24.719772 29.16021 31.679749 36.119209 40.559647 44.999081 47.519623 51.959057 56.399494">+00 754 423 456</tspan><tspan
             id="tspan50"
             y="46.9734"
             x="0 4.3652339 9.5634785 14.8047 19.694359 24.333042 30.534216 35.561531 38.651386 42.98634 50.063492 54.701195 60.902393 65.930733 69.020592 73.355568 76.148521 80.972733 86.170982">YOUREMAIL@EMAIL.COM</tspan><tspan
             id="tspan52"
             y="58.9734"
             x="0 4.3652339 9.5634785 14.8047 19.63479 26.255892 30.893599 35.780312 40.322311 43.412167 47.669975 52.307682 55.100658 59.924873 65.123116">YOURWEBSITE.COM</tspan></text>
</g><path
         id="path56"
         style="fill:none;stroke:#222d27;stroke-width:5;stroke-linecap:butt;stroke-linejoin:miter;stroke-miterlimit:10;stroke-dasharray:none;stroke-opacity:1"
         d="M 3419.86,1308.57 V 408.629" /><path
         id="path58"
         style="fill:#f3f0ed;fill-opacity:1;fill-rule:nonzero;stroke:none"
         d="M 2579.53,0 H 0 V 1672.44 H 2579.53 V 0" /><g
         id="g60"><g
           clip-path="url(#clipPath66)"
           id="g62"><g
             clip-path="url(#clipPath72)"
             id="g68"><path
               id="path74"
               style="fill:#dfd9d0;fill-opacity:1;fill-rule:nonzero;stroke:none"
               d="m 1481.25,537.52 c 1.86,-40.11 4.89,-83.34 30.58,-114.2 25.7,-30.851 67.76,-41.679 107.12,-49.621 42.12,-8.488 85.29,-15.687 127.89,-10.097 42.59,5.589 85.13,25.718 108.6,61.707 38.51,59.07 13.04,142.543 -38.14,191.05 -134.87,127.825 -347.29,162.532 -336.05,-78.839" /><path
               id="path76"
               style="fill:#cfe6e7;fill-opacity:1;fill-rule:nonzero;stroke:none"
               d="m 826.996,146.012 c 0.949,115.008 5.723,230.226 -10.277,343.929 C 791.398,669.871 695.363,858.473 522.742,915.199 386.953,959.824 231.508,908.996 128.449,809.961 25.3867,710.922 -30.375,570.781 -52.5117,429.57 -66.0352,343.281 -67.9961,255.949 -65.5313,168.531 232.039,177.82 529.902,170.352 826.996,146.012" /><path
               id="path78"
               style="fill:#b0dabf;fill-opacity:1;fill-rule:nonzero;stroke:none"
               d="m 2716.59,938.633 c -24.5,71.597 -52.53,141.767 -87.92,208.617 -68.71,129.8 -167.84,247.9 -298.98,314.01 -187.04,94.28 -423.16,67.97 -597.97,-47.4 -155.01,-102.29 -262.26,-267.46 -311.21,-447.137 432.17,1.8 864.39,-7.59 1296.08,-28.09" /><path
               id="path80"
               style="fill:#222d27;fill-opacity:1;fill-rule:nonzero;stroke:none"
               d="m 1666.79,1437.71 c 9.1,-55.86 52.74,-104.08 106.18,-121.54 44.54,-14.54 115.02,-11.13 117.35,47.77 4.38,111.02 -238.53,165.88 -223.53,73.77" /><path
               id="path82"
               style="fill:#222d27;fill-opacity:1;fill-rule:nonzero;stroke:none"
               d="M 509.09,51.5508 C 669.293,148.449 506,339.93 365.5,233.801 219.531,123.551 367.684,-33.9688 509.09,51.5508" /></g></g></g><g
         transform="scale(10)"
         id="g84"><text
           id="text88"
           style="font-variant:normal;font-weight:bold;font-size:27.23349953px;font-family:Antonio;-inkscape-font-specification:Antonio-Bold;writing-mode:lr-tb;fill:#222d27;fill-opacity:1;fill-rule:nonzero;stroke:none"
           transform="matrix(1,0,0,-1,93.5172,90.2)"><tspan
             id="tspan86"
             y="0"
             x="0 14.174301 28.441412 41.85791 57.161617">BRAND</tspan></text>
<text
           id="text92"
           style="font-variant:normal;font-weight:100;font-size:36.92070007px;font-family:Antonio;-inkscape-font-specification:Antonio-Thin;writing-mode:lr-tb;fill:#222d27;fill-opacity:1;fill-rule:nonzero;stroke:none"
           transform="matrix(1,0,0,-1,92.2672,52.3922)"><tspan
             id="tspan90"
             y="0"
             x="0 19.198206 35.421303 58.603901">NAME</tspan></text>
</g><path
         id="path94"
         style="fill:none;stroke:#222d27;stroke-width:4.42324018;stroke-linecap:butt;stroke-linejoin:miter;stroke-miterlimit:10;stroke-dasharray:none;stroke-opacity:1"
         d="M 946.566,464.711 H 1632.46" /></g></g></svg>