<?xml version="1.0" encoding="UTF-8" standalone="no"?>
<svg
   xmlns:dc="http://purl.org/dc/elements/1.1/"
   xmlns:cc="http://creativecommons.org/ns#"
   xmlns:rdf="http://www.w3.org/1999/02/22-rdf-syntax-ns#"
   xmlns:svg="http://www.w3.org/2000/svg"
   xmlns="http://www.w3.org/2000/svg"
   viewBox="0 0 358.67999 465.78668"
   height="465.78668"
   width="358.67999"
   xml:space="preserve"
   id="svg2"
   version="1.1"><metadata
     id="metadata8"><rdf:RDF><cc:Work
         rdf:about=""><dc:format>image/svg+xml</dc:format><dc:type
           rdf:resource="http://purl.org/dc/dcmitype/StillImage" /></cc:Work></rdf:RDF></metadata><defs
     id="defs6"><clipPath
       id="clipPath24"
       clipPathUnits="userSpaceOnUse"><path
         id="path22"
         d="m 2420.37,805.039 c 0,-289.148 -234.41,-523.559 -523.56,-523.559 -289.16,0 -523.57,234.411 -523.57,523.559 0,289.161 234.41,523.561 523.57,523.561 289.15,0 523.56,-234.4 523.56,-523.561 z" /></clipPath></defs><g
     transform="matrix(1.3333333,0,0,-1.3333333,0,465.78667)"
     id="g10"><g
       transform="scale(0.1)"
       id="g12"><path
         id="path14"
         style="fill:#e29569;fill-opacity:1;fill-rule:nonzero;stroke:none"
         d="M 0,1610.08 H 2690.08 V 0 H 0 v 1610.08" /><path
         id="path16"
         style="fill:#f9f4e8;fill-opacity:1;fill-rule:nonzero;stroke:none"
         d="m 2420.37,805.039 c 0,-289.148 -234.41,-523.559 -523.56,-523.559 -289.16,0 -523.57,234.411 -523.57,523.559 0,289.161 234.41,523.561 523.57,523.561 289.15,0 523.56,-234.4 523.56,-523.561" /><g
         id="g18"><g
           clip-path="url(#clipPath24)"
           id="g20"><path
             id="path26"
             style="fill:#fddf69;fill-opacity:1;fill-rule:nonzero;stroke:none"
             d="m 2066.93,140.02 -50.31,-14.141 -48.26,171.652 50.32,14.149 48.25,-171.66" /><path
             id="path28"
             style="fill:#afd3e7;fill-opacity:1;fill-rule:nonzero;stroke:none"
             d="m 1837.79,474.422 49.14,-17.793 -60.64,-167.668 -49.15,17.769 60.65,167.692" /><path
             id="path30"
             style="fill:#fabadf;fill-opacity:1;fill-rule:nonzero;stroke:none"
             d="m 1869.19,746.5 -46.18,24.469 83.51,157.551 46.18,-24.481 -83.51,-157.539" /><path
             id="path32"
             style="fill:#9cdcc9;fill-opacity:1;fill-rule:nonzero;stroke:none"
             d="m 2044.89,669.91 14.15,-50.308 -171.66,-48.262 -14.14,50.308 171.65,48.262" /><path
             id="path34"
             style="fill:#afd3e7;fill-opacity:1;fill-rule:nonzero;stroke:none"
             d="m 2410.37,1070.75 18.02,-49.05 -167.37,-61.501 -18.02,49.061 167.37,61.49" /><path
             id="path36"
             style="fill:#f791a4;fill-opacity:1;fill-rule:nonzero;stroke:none"
             d="m 2183.89,1188.25 -22.54,-47.15 -160.88,76.9 22.54,47.15 160.88,-76.9" /><path
             id="path38"
             style="fill:#c889cb;fill-opacity:1;fill-rule:nonzero;stroke:none"
             d="m 2130.78,945.219 -47.55,-21.699 -74.02,162.21 47.55,21.7 74.02,-162.211" /><path
             id="path40"
             style="fill:#fddf69;fill-opacity:1;fill-rule:nonzero;stroke:none"
             d="m 2199.4,620.91 -50.9,-11.84 -40.38,173.692 50.9,11.828 40.38,-173.68" /><path
             id="path42"
             style="fill:#f791a4;fill-opacity:1;fill-rule:nonzero;stroke:none"
             d="m 2312.68,753.352 31.09,42.007 143.33,-106.058 -31.08,-42.012 -143.34,106.063" /><path
             id="path44"
             style="fill:#f35e99;fill-opacity:1;fill-rule:nonzero;stroke:none"
             d="m 2150.6,391.43 -29.67,43.019 146.78,101.242 29.68,-43.019 L 2150.6,391.43" /><path
             id="path46"
             style="fill:#9cdcc9;fill-opacity:1;fill-rule:nonzero;stroke:none"
             d="m 1869.76,1350.06 39.86,-33.8 -115.29,-136.01 -39.87,33.78 115.3,136.03" /><path
             id="path48"
             style="fill:#f79469;fill-opacity:1;fill-rule:nonzero;stroke:none"
             d="m 1626.87,861.148 39.86,-33.789 -115.29,-136.019 -39.87,33.801 115.3,136.007" /><path
             id="path50"
             style="fill:#9cdcc9;fill-opacity:1;fill-rule:nonzero;stroke:none"
             d="m 1434.72,625.719 -14.81,-50.11 -171,50.52 14.81,50.121 171,-50.531" /><path
             id="path52"
             style="fill:#fbc4bf;fill-opacity:1;fill-rule:nonzero;stroke:none"
             d="m 1536.11,474.949 45.05,26.5 90.41,-153.679 -45.05,-26.508 -90.41,153.687" /><path
             id="path54"
             style="fill:#fabadf;fill-opacity:1;fill-rule:nonzero;stroke:none"
             d="m 1376.45,1049.68 48.71,18.95 64.67,-166.161 -48.71,-18.957 -64.67,166.168" /><path
             id="path56"
             style="fill:#f35e99;fill-opacity:1;fill-rule:nonzero;stroke:none"
             d="m 1744.54,516.461 -52.2,2.609 8.93,178.098 52.2,-2.629 -8.93,-178.078" /><path
             id="path58"
             style="fill:#fddf69;fill-opacity:1;fill-rule:nonzero;stroke:none"
             d="m 1684.01,930.43 -11.84,50.91 173.68,40.38 11.84,-50.911 -173.68,-40.379" /><path
             id="path60"
             style="fill:#fabadf;fill-opacity:1;fill-rule:nonzero;stroke:none"
             d="m 1869.19,746.5 -46.18,24.469 83.51,157.551 46.18,-24.481 -83.51,-157.539" /><path
             id="path62"
             style="fill:#c889cb;fill-opacity:1;fill-rule:nonzero;stroke:none"
             d="m 1511.61,1196.46 20.65,48.01 163.81,-70.44 -20.65,-48 -163.81,70.43" /><path
             id="path64"
             style="fill:#afd3e7;fill-opacity:1;fill-rule:nonzero;stroke:none"
             d="m 1837.79,474.422 49.14,-17.793 -60.64,-167.668 -49.15,17.769 60.65,167.692" /><path
             id="path66"
             style="fill:#9cdcc9;fill-opacity:1;fill-rule:nonzero;stroke:none"
             d="m 2044.89,669.91 14.15,-50.308 -171.66,-48.262 -14.14,50.308 171.65,48.262" /></g></g><path
         id="path68"
         style="fill:#f8f3e8;fill-opacity:1;fill-rule:nonzero;stroke:none"
         d="M 415.648,789.391 H 303.445 c -7.218,0 -13.132,5.898 -13.132,13.121 v 0 c 0,7.226 5.914,13.136 13.132,13.136 h 112.203 c 7.223,0 13.129,-5.91 13.129,-13.136 v 0 c 0,-7.223 -5.906,-13.121 -13.129,-13.121" /><g
         transform="scale(10)"
         id="g70"><text
           id="text84"
           style="font-variant:normal;font-weight:300;font-size:6px;font-family:Poppins;-inkscape-font-specification:Poppins-Light;writing-mode:lr-tb;fill:#f8f3e8;fill-opacity:1;fill-rule:nonzero;stroke:none"
           transform="matrix(1,0,0,-1,30.0352,68.1488)"><tspan
             id="tspan72"
             y="0"
             x="0 3.7797923 7.7221742 11.664064 13.524415 15.437985 19.139647 22.949707 24.809566 28.751951 32.705563 36.719231 40.049309 41.909176 45.929195 49.889156">+00 123 4567 890</tspan><tspan
             id="tspan74"
             y="7.0539098"
             x="0 1.6377012 6.0180702 9.293951 14.340342 21.275892 26.165539 31.211929 36.527851 40.176289 44.339863 48.719742 52.445812 56.825691 60.989754 66.305672 69.593269 70.81739 75.707054 80.753441">INFO@COMPANYNAME.COM</tspan><tspan
             id="tspan76"
             y="14.10664"
             x="0 6.0175819 12.035652 18.05323 19.277353 24.166998 29.2129 34.529308 38.177261 42.341324 46.721199 50.446793 54.827164 58.99073 64.307144 67.594742 68.818375 73.708511 78.754417">WWW.COMPANYNAME.COM</tspan><tspan
             id="tspan78"
             y="28.21364"
             x="0 1.9135728 5.6157222 9.425292 11.285643 15.01123 20.057131 24.269533 27.983398 29.843752 32.681641 37.727539 42.61768 46.781246 50.123539 51.761238 56.807137 61.187508 63.047367 67.403816 70.691414 74.405281">123 YOUR LOCATION HERE</tspan><tspan
             id="tspan80"
             y="35.266762"
             x="0 3.7255878 8.7719784 12.983891 16.69825 18.558109 22.271982 26.844255 28.067884 29.928238 33.653828 38.699726 42.912128 46.625992 48.486347 52.1343 55.476097 59.190456 62.478062 65.766144">YOUR RD. YOUR STREET</tspan><tspan
             id="tspan82"
             y="42.320671"
             x="0 3.6479485 8.6943388 12.34229 15.68458 19.848152 22.686043 24.546391 28.488287 32.430668 36.372562">POSTAL 0000</tspan></text>
<text
           id="text90"
           style="font-variant:normal;font-weight:bold;font-size:20px;font-family:Comfortaa;-inkscape-font-specification:Comfortaa-Bold;writing-mode:lr-tb;fill:#f8f3e8;fill-opacity:1;fill-rule:nonzero;stroke:none"
           transform="matrix(1,0,0,-1,27.46801,112.41793)"><tspan
             id="tspan86"
             y="0"
             x="0 13.9194 28.699703 41.9995 56.939903 70.639603">Rachel</tspan><tspan
             id="tspan88"
             y="22.7969"
             x="0 15.039598 35.079597 42.398937 51.698734 66.638641">Smith </tspan></text>
</g><path
         id="path92"
         style="fill:#f8f3e8;fill-opacity:1;fill-rule:nonzero;stroke:none"
         d="M 0,3493.39 H 2690.08 V 1883.31 H 0 v 1610.08" /><g
         transform="scale(10)"
         id="g94"><text
           id="text98"
           style="font-variant:normal;font-weight:300;font-size:6px;font-family:Poppins;-inkscape-font-specification:Poppins-Light;writing-mode:lr-tb;fill:#515355;fill-opacity:1;fill-rule:nonzero;stroke:none"
           transform="matrix(1,0,0,-1,93.1133,253.706)"><tspan
             id="tspan96"
             y="0"
             x="0 6.4921918 11.70606 17.370119 22.518072 28.374048 31.511742 37.901875 41.261742 47.333519 52.121616 57.269569 60.407742 66.899437 72.77932 77.567413">GRAPHIC DESIGNER</tspan></text>
</g><g
         transform="scale(10)"
         id="g100"><text
           id="text104"
           style="font-variant:normal;font-weight:bold;font-size:20px;font-family:Comfortaa;-inkscape-font-specification:Comfortaa-Bold;writing-mode:lr-tb;fill:#f79469;fill-opacity:1;fill-rule:nonzero;stroke:none"
           transform="matrix(1,0,0,-1,58.6547,267.396)"><tspan
             id="tspan102"
             y="0"
             x="0 13.9194 28.699697 41.999496 56.939903 70.639603 77.919388 85.059052 100.09905 120.13866 127.458 136.7578">Rachel Smith</tspan></text>
</g></g></g></svg>